# xmcd
# Copyright (C) 1995-1998 Ti Kan
#
# Track frame offsets:
#       150
#       45008
#       74218
#       117892
#       160873
#
# Disc length: 2766 seconds
#
# Revision: 0
# Processed by: cddbd v1.5.2PL0 Copyright (c) Steve Scherf et al.
# Submitted via: CD-Import v1.0
#
DISCID=3b0acc05
DTITLE=Daphnwe Du Maurier - Rebecca T2
DYEAR=1900
DGENRE=
TTITLE0=Rebecca T2.1
TTITLE1=Rebecca T2.2
TTITLE2=Rebecca T2.3
TTITLE3=Rebecca T2.4
TTITLE4=Rebecca T2.5
EXTD=
EXTT0=
EXTT1=
EXTT2=
EXTT3=
EXTT4=
PLAYORDER=
